<mxfile host="app.diagrams.net" agent="Mozilla/5.0 (X11; Linux x86_64; rv:134.0) Gecko/20100101 Firefox/134.0" version="26.0.14">
  <diagram id="C5RBs43oDa-KdzZeNtuy" name="Page-1">
    <mxGraphModel dx="1434" dy="755" grid="1" gridSize="10" guides="1" tooltips="1" connect="1" arrows="1" fold="1" page="1" pageScale="1" pageWidth="827" pageHeight="1169" math="0" shadow="0">
      <root>
        <mxCell id="WIyWlLk6GJQsqaUBKTNV-0" />
        <mxCell id="WIyWlLk6GJQsqaUBKTNV-1" parent="WIyWlLk6GJQsqaUBKTNV-0" />
        <mxCell id="_S26A7Fd76icPsUkR7dQ-3" value="" style="edgeStyle=orthogonalEdgeStyle;rounded=0;orthogonalLoop=1;jettySize=auto;html=1;" edge="1" parent="WIyWlLk6GJQsqaUBKTNV-1" source="_S26A7Fd76icPsUkR7dQ-1">
          <mxGeometry relative="1" as="geometry">
            <mxPoint x="425" y="210" as="targetPoint" />
          </mxGeometry>
        </mxCell>
        <mxCell id="_S26A7Fd76icPsUkR7dQ-1" value="Start" style="ellipse;whiteSpace=wrap;html=1;fillColor=light-dark(#938CFF,var(--ge-dark-color, #121212));" vertex="1" parent="WIyWlLk6GJQsqaUBKTNV-1">
          <mxGeometry x="370" y="90" width="110" height="60" as="geometry" />
        </mxCell>
        <mxCell id="_S26A7Fd76icPsUkR7dQ-4" value="A &amp;gt; B" style="rhombus;whiteSpace=wrap;html=1;fillColor=light-dark(#76FF54,var(--ge-dark-color, #121212));" vertex="1" parent="WIyWlLk6GJQsqaUBKTNV-1">
          <mxGeometry x="385" y="210" width="80" height="80" as="geometry" />
        </mxCell>
        <mxCell id="_S26A7Fd76icPsUkR7dQ-9" value="" style="endArrow=classic;html=1;rounded=0;exitX=0.5;exitY=1;exitDx=0;exitDy=0;entryX=0.583;entryY=0.017;entryDx=0;entryDy=0;entryPerimeter=0;" edge="1" parent="WIyWlLk6GJQsqaUBKTNV-1" source="_S26A7Fd76icPsUkR7dQ-4" target="_S26A7Fd76icPsUkR7dQ-12">
          <mxGeometry width="50" height="50" relative="1" as="geometry">
            <mxPoint x="250" y="290" as="sourcePoint" />
            <mxPoint x="340" y="340" as="targetPoint" />
          </mxGeometry>
        </mxCell>
        <mxCell id="_S26A7Fd76icPsUkR7dQ-10" value="" style="endArrow=classic;html=1;rounded=0;exitX=0.5;exitY=1;exitDx=0;exitDy=0;entryX=0.4;entryY=-0.017;entryDx=0;entryDy=0;entryPerimeter=0;" edge="1" parent="WIyWlLk6GJQsqaUBKTNV-1" source="_S26A7Fd76icPsUkR7dQ-4" target="_S26A7Fd76icPsUkR7dQ-11">
          <mxGeometry width="50" height="50" relative="1" as="geometry">
            <mxPoint x="600" y="340" as="sourcePoint" />
            <mxPoint x="500" y="340" as="targetPoint" />
            <Array as="points" />
          </mxGeometry>
        </mxCell>
        <mxCell id="_S26A7Fd76icPsUkR7dQ-11" value="print(B)" style="rounded=0;whiteSpace=wrap;html=1;strokeColor=light-dark(#0000FF,#FFFFFF);fillColor=light-dark(#FF3516,var(--ge-dark-color, #121212));" vertex="1" parent="WIyWlLk6GJQsqaUBKTNV-1">
          <mxGeometry x="460" y="340" width="120" height="60" as="geometry" />
        </mxCell>
        <mxCell id="_S26A7Fd76icPsUkR7dQ-12" value="print(A)" style="rounded=0;whiteSpace=wrap;html=1;strokeColor=light-dark(#FF052E,#FFFFFF);fillColor=light-dark(#FF283E,var(--ge-dark-color, #121212));" vertex="1" parent="WIyWlLk6GJQsqaUBKTNV-1">
          <mxGeometry x="265" y="340" width="120" height="60" as="geometry" />
        </mxCell>
        <mxCell id="_S26A7Fd76icPsUkR7dQ-13" value="" style="endArrow=classic;html=1;rounded=0;exitX=0.633;exitY=1.033;exitDx=0;exitDy=0;exitPerimeter=0;" edge="1" parent="WIyWlLk6GJQsqaUBKTNV-1" source="_S26A7Fd76icPsUkR7dQ-12" target="_S26A7Fd76icPsUkR7dQ-15">
          <mxGeometry width="50" height="50" relative="1" as="geometry">
            <mxPoint x="350" y="500" as="sourcePoint" />
            <mxPoint x="420" y="470" as="targetPoint" />
          </mxGeometry>
        </mxCell>
        <mxCell id="_S26A7Fd76icPsUkR7dQ-14" value="" style="endArrow=classic;html=1;rounded=0;exitX=0.5;exitY=1;exitDx=0;exitDy=0;entryX=0.7;entryY=0.043;entryDx=0;entryDy=0;entryPerimeter=0;" edge="1" parent="WIyWlLk6GJQsqaUBKTNV-1" source="_S26A7Fd76icPsUkR7dQ-11" target="_S26A7Fd76icPsUkR7dQ-15">
          <mxGeometry width="50" height="50" relative="1" as="geometry">
            <mxPoint x="513.04" y="401.98" as="sourcePoint" />
            <mxPoint x="450" y="470" as="targetPoint" />
          </mxGeometry>
        </mxCell>
        <mxCell id="_S26A7Fd76icPsUkR7dQ-15" value="End" style="ellipse;whiteSpace=wrap;html=1;fillColor=light-dark(#67FF26,var(--ge-dark-color, #121212));" vertex="1" parent="WIyWlLk6GJQsqaUBKTNV-1">
          <mxGeometry x="370" y="470" width="120" height="70" as="geometry" />
        </mxCell>
        <mxCell id="_S26A7Fd76icPsUkR7dQ-17" style="edgeStyle=orthogonalEdgeStyle;rounded=0;orthogonalLoop=1;jettySize=auto;html=1;exitX=0.5;exitY=1;exitDx=0;exitDy=0;" edge="1" parent="WIyWlLk6GJQsqaUBKTNV-1" source="_S26A7Fd76icPsUkR7dQ-15" target="_S26A7Fd76icPsUkR7dQ-15">
          <mxGeometry relative="1" as="geometry" />
        </mxCell>
      </root>
    </mxGraphModel>
  </diagram>
</mxfile>
